<mxfile host="app.diagrams.net" modified="2022-02-04T15:23:22.442Z" agent="5.0 (Macintosh; Intel Mac OS X 10_15_7) AppleWebKit/537.36 (KHTML, like Gecko) Chrome/97.0.4692.99 Safari/537.36" etag="HBLjBxN3glw4Y5PHj_YK" version="16.5.2" type="github">
  <diagram id="C5RBs43oDa-KdzZeNtuy" name="Page-1">
    <mxGraphModel dx="1113" dy="760" grid="1" gridSize="10" guides="1" tooltips="1" connect="1" arrows="1" fold="1" page="1" pageScale="1" pageWidth="827" pageHeight="1169" math="0" shadow="0">
      <root>
        <mxCell id="WIyWlLk6GJQsqaUBKTNV-0" />
        <mxCell id="WIyWlLk6GJQsqaUBKTNV-1" parent="WIyWlLk6GJQsqaUBKTNV-0" />
        <mxCell id="MmgOfs4JkYU5Ez-4q49p-0" style="edgeStyle=orthogonalEdgeStyle;rounded=0;orthogonalLoop=1;jettySize=auto;html=1;entryX=0.5;entryY=0;entryDx=0;entryDy=0;" edge="1" parent="WIyWlLk6GJQsqaUBKTNV-1" source="MmgOfs4JkYU5Ez-4q49p-1" target="MmgOfs4JkYU5Ez-4q49p-3">
          <mxGeometry relative="1" as="geometry" />
        </mxCell>
        <mxCell id="MmgOfs4JkYU5Ez-4q49p-1" value="Start" style="rounded=1;whiteSpace=wrap;html=1;fontSize=12;glass=0;strokeWidth=1;shadow=0;" vertex="1" parent="WIyWlLk6GJQsqaUBKTNV-1">
          <mxGeometry x="80" y="40" width="120" height="40" as="geometry" />
        </mxCell>
        <mxCell id="MmgOfs4JkYU5Ez-4q49p-2" value="" style="edgeStyle=orthogonalEdgeStyle;rounded=0;orthogonalLoop=1;jettySize=auto;html=1;" edge="1" parent="WIyWlLk6GJQsqaUBKTNV-1" source="MmgOfs4JkYU5Ez-4q49p-3" target="MmgOfs4JkYU5Ez-4q49p-5">
          <mxGeometry relative="1" as="geometry" />
        </mxCell>
        <mxCell id="MmgOfs4JkYU5Ez-4q49p-3" value="Number of books = 10" style="rounded=0;whiteSpace=wrap;html=1;" vertex="1" parent="WIyWlLk6GJQsqaUBKTNV-1">
          <mxGeometry x="80" y="160" width="120" height="60" as="geometry" />
        </mxCell>
        <mxCell id="MmgOfs4JkYU5Ez-4q49p-4" value="" style="edgeStyle=orthogonalEdgeStyle;rounded=0;orthogonalLoop=1;jettySize=auto;html=1;entryX=0.5;entryY=0;entryDx=0;entryDy=0;" edge="1" parent="WIyWlLk6GJQsqaUBKTNV-1" source="MmgOfs4JkYU5Ez-4q49p-5" target="MmgOfs4JkYU5Ez-4q49p-20">
          <mxGeometry relative="1" as="geometry">
            <mxPoint x="140" y="320" as="targetPoint" />
          </mxGeometry>
        </mxCell>
        <mxCell id="MmgOfs4JkYU5Ez-4q49p-5" value="Mom said, &quot;read all of your books until you understand&quot;" style="whiteSpace=wrap;html=1;rounded=0;" vertex="1" parent="WIyWlLk6GJQsqaUBKTNV-1">
          <mxGeometry x="80" y="240" width="120" height="60" as="geometry" />
        </mxCell>
        <mxCell id="MmgOfs4JkYU5Ez-4q49p-21" value="" style="edgeStyle=orthogonalEdgeStyle;rounded=0;orthogonalLoop=1;jettySize=auto;html=1;" edge="1" parent="WIyWlLk6GJQsqaUBKTNV-1" target="MmgOfs4JkYU5Ez-4q49p-20">
          <mxGeometry relative="1" as="geometry">
            <mxPoint x="140" y="380" as="sourcePoint" />
          </mxGeometry>
        </mxCell>
        <mxCell id="MmgOfs4JkYU5Ez-4q49p-8" value="" style="edgeStyle=orthogonalEdgeStyle;rounded=0;orthogonalLoop=1;jettySize=auto;html=1;" edge="1" parent="WIyWlLk6GJQsqaUBKTNV-1" source="MmgOfs4JkYU5Ez-4q49p-12" target="MmgOfs4JkYU5Ez-4q49p-14">
          <mxGeometry relative="1" as="geometry" />
        </mxCell>
        <mxCell id="MmgOfs4JkYU5Ez-4q49p-9" value="No" style="edgeLabel;html=1;align=center;verticalAlign=middle;resizable=0;points=[];" vertex="1" connectable="0" parent="MmgOfs4JkYU5Ez-4q49p-8">
          <mxGeometry x="-0.3091" relative="1" as="geometry">
            <mxPoint as="offset" />
          </mxGeometry>
        </mxCell>
        <mxCell id="MmgOfs4JkYU5Ez-4q49p-10" value="" style="edgeStyle=orthogonalEdgeStyle;rounded=0;orthogonalLoop=1;jettySize=auto;html=1;" edge="1" parent="WIyWlLk6GJQsqaUBKTNV-1" source="MmgOfs4JkYU5Ez-4q49p-12" target="MmgOfs4JkYU5Ez-4q49p-18">
          <mxGeometry relative="1" as="geometry" />
        </mxCell>
        <mxCell id="MmgOfs4JkYU5Ez-4q49p-11" value="Yes" style="edgeLabel;html=1;align=center;verticalAlign=middle;resizable=0;points=[];" vertex="1" connectable="0" parent="MmgOfs4JkYU5Ez-4q49p-10">
          <mxGeometry x="-0.0857" relative="1" as="geometry">
            <mxPoint as="offset" />
          </mxGeometry>
        </mxCell>
        <mxCell id="MmgOfs4JkYU5Ez-4q49p-12" value="Number of books = number of books read?" style="rhombus;whiteSpace=wrap;html=1;rounded=0;" vertex="1" parent="WIyWlLk6GJQsqaUBKTNV-1">
          <mxGeometry x="50" y="570" width="180" height="110" as="geometry" />
        </mxCell>
        <mxCell id="MmgOfs4JkYU5Ez-4q49p-13" value="" style="edgeStyle=orthogonalEdgeStyle;rounded=0;orthogonalLoop=1;jettySize=auto;html=1;startArrow=none;" edge="1" parent="WIyWlLk6GJQsqaUBKTNV-1" source="MmgOfs4JkYU5Ez-4q49p-23" target="MmgOfs4JkYU5Ez-4q49p-16">
          <mxGeometry relative="1" as="geometry" />
        </mxCell>
        <mxCell id="MmgOfs4JkYU5Ez-4q49p-25" value="yes" style="edgeLabel;html=1;align=center;verticalAlign=middle;resizable=0;points=[];" vertex="1" connectable="0" parent="MmgOfs4JkYU5Ez-4q49p-13">
          <mxGeometry x="-0.025" y="2" relative="1" as="geometry">
            <mxPoint as="offset" />
          </mxGeometry>
        </mxCell>
        <mxCell id="MmgOfs4JkYU5Ez-4q49p-14" value="Read 1 unread book or not understood" style="whiteSpace=wrap;html=1;rounded=0;" vertex="1" parent="WIyWlLk6GJQsqaUBKTNV-1">
          <mxGeometry x="290" y="595" width="120" height="60" as="geometry" />
        </mxCell>
        <mxCell id="MmgOfs4JkYU5Ez-4q49p-41" style="edgeStyle=orthogonalEdgeStyle;rounded=0;orthogonalLoop=1;jettySize=auto;html=1;entryX=1;entryY=0.5;entryDx=0;entryDy=0;" edge="1" parent="WIyWlLk6GJQsqaUBKTNV-1" source="MmgOfs4JkYU5Ez-4q49p-16" target="MmgOfs4JkYU5Ez-4q49p-39">
          <mxGeometry relative="1" as="geometry">
            <Array as="points">
              <mxPoint x="730" y="520" />
            </Array>
          </mxGeometry>
        </mxCell>
        <mxCell id="MmgOfs4JkYU5Ez-4q49p-16" value="Number of books read &amp;amp; understood = number of books read &amp;amp; understood + 1" style="whiteSpace=wrap;html=1;rounded=0;" vertex="1" parent="WIyWlLk6GJQsqaUBKTNV-1">
          <mxGeometry x="670" y="595" width="120" height="60" as="geometry" />
        </mxCell>
        <mxCell id="MmgOfs4JkYU5Ez-4q49p-17" style="edgeStyle=orthogonalEdgeStyle;rounded=0;orthogonalLoop=1;jettySize=auto;html=1;" edge="1" parent="WIyWlLk6GJQsqaUBKTNV-1" source="MmgOfs4JkYU5Ez-4q49p-18" target="MmgOfs4JkYU5Ez-4q49p-19">
          <mxGeometry relative="1" as="geometry" />
        </mxCell>
        <mxCell id="MmgOfs4JkYU5Ez-4q49p-18" value="Report to mom that all the books have been read" style="whiteSpace=wrap;html=1;rounded=0;" vertex="1" parent="WIyWlLk6GJQsqaUBKTNV-1">
          <mxGeometry x="80" y="785" width="120" height="60" as="geometry" />
        </mxCell>
        <mxCell id="MmgOfs4JkYU5Ez-4q49p-19" value="Finish" style="rounded=1;whiteSpace=wrap;html=1;" vertex="1" parent="WIyWlLk6GJQsqaUBKTNV-1">
          <mxGeometry x="80" y="930" width="120" height="60" as="geometry" />
        </mxCell>
        <mxCell id="MmgOfs4JkYU5Ez-4q49p-22" value="" style="edgeStyle=orthogonalEdgeStyle;rounded=0;orthogonalLoop=1;jettySize=auto;html=1;" edge="1" parent="WIyWlLk6GJQsqaUBKTNV-1" source="MmgOfs4JkYU5Ez-4q49p-20" target="MmgOfs4JkYU5Ez-4q49p-12">
          <mxGeometry relative="1" as="geometry" />
        </mxCell>
        <mxCell id="MmgOfs4JkYU5Ez-4q49p-20" value="Number of books read &amp;amp; understood= 0" style="whiteSpace=wrap;html=1;rounded=0;" vertex="1" parent="WIyWlLk6GJQsqaUBKTNV-1">
          <mxGeometry x="80" y="420" width="120" height="60" as="geometry" />
        </mxCell>
        <mxCell id="MmgOfs4JkYU5Ez-4q49p-29" value="" style="edgeStyle=orthogonalEdgeStyle;rounded=0;orthogonalLoop=1;jettySize=auto;html=1;entryX=0.5;entryY=1;entryDx=0;entryDy=0;" edge="1" parent="WIyWlLk6GJQsqaUBKTNV-1" source="MmgOfs4JkYU5Ez-4q49p-23" target="MmgOfs4JkYU5Ez-4q49p-14">
          <mxGeometry relative="1" as="geometry">
            <mxPoint x="535" y="745" as="targetPoint" />
            <Array as="points">
              <mxPoint x="535" y="700" />
              <mxPoint x="350" y="700" />
            </Array>
          </mxGeometry>
        </mxCell>
        <mxCell id="MmgOfs4JkYU5Ez-4q49p-38" value="No" style="edgeLabel;html=1;align=center;verticalAlign=middle;resizable=0;points=[];" vertex="1" connectable="0" parent="MmgOfs4JkYU5Ez-4q49p-29">
          <mxGeometry x="-0.0431" relative="1" as="geometry">
            <mxPoint as="offset" />
          </mxGeometry>
        </mxCell>
        <mxCell id="MmgOfs4JkYU5Ez-4q49p-23" value="Understood?" style="rhombus;whiteSpace=wrap;html=1;rounded=0;" vertex="1" parent="WIyWlLk6GJQsqaUBKTNV-1">
          <mxGeometry x="480" y="575" width="110" height="100" as="geometry" />
        </mxCell>
        <mxCell id="MmgOfs4JkYU5Ez-4q49p-24" value="" style="edgeStyle=orthogonalEdgeStyle;rounded=0;orthogonalLoop=1;jettySize=auto;html=1;endArrow=none;" edge="1" parent="WIyWlLk6GJQsqaUBKTNV-1" source="MmgOfs4JkYU5Ez-4q49p-14" target="MmgOfs4JkYU5Ez-4q49p-23">
          <mxGeometry relative="1" as="geometry">
            <mxPoint x="410" y="625" as="sourcePoint" />
            <mxPoint x="670" y="625" as="targetPoint" />
          </mxGeometry>
        </mxCell>
        <mxCell id="MmgOfs4JkYU5Ez-4q49p-42" style="edgeStyle=orthogonalEdgeStyle;rounded=0;orthogonalLoop=1;jettySize=auto;html=1;entryX=0.5;entryY=0;entryDx=0;entryDy=0;" edge="1" parent="WIyWlLk6GJQsqaUBKTNV-1" source="MmgOfs4JkYU5Ez-4q49p-39" target="MmgOfs4JkYU5Ez-4q49p-12">
          <mxGeometry relative="1" as="geometry" />
        </mxCell>
        <mxCell id="MmgOfs4JkYU5Ez-4q49p-43" value="No" style="edgeLabel;html=1;align=center;verticalAlign=middle;resizable=0;points=[];" vertex="1" connectable="0" parent="MmgOfs4JkYU5Ez-4q49p-42">
          <mxGeometry x="-0.1226" y="-2" relative="1" as="geometry">
            <mxPoint as="offset" />
          </mxGeometry>
        </mxCell>
        <mxCell id="MmgOfs4JkYU5Ez-4q49p-44" style="edgeStyle=orthogonalEdgeStyle;rounded=0;orthogonalLoop=1;jettySize=auto;html=1;entryX=1;entryY=0.5;entryDx=0;entryDy=0;" edge="1" parent="WIyWlLk6GJQsqaUBKTNV-1" source="MmgOfs4JkYU5Ez-4q49p-39" target="MmgOfs4JkYU5Ez-4q49p-19">
          <mxGeometry relative="1" as="geometry">
            <mxPoint x="870" y="960" as="targetPoint" />
            <Array as="points">
              <mxPoint x="445" y="385" />
              <mxPoint x="880" y="385" />
              <mxPoint x="880" y="960" />
            </Array>
          </mxGeometry>
        </mxCell>
        <mxCell id="MmgOfs4JkYU5Ez-4q49p-45" value="Yes" style="edgeLabel;html=1;align=center;verticalAlign=middle;resizable=0;points=[];" vertex="1" connectable="0" parent="MmgOfs4JkYU5Ez-4q49p-44">
          <mxGeometry x="-0.9564" relative="1" as="geometry">
            <mxPoint y="1" as="offset" />
          </mxGeometry>
        </mxCell>
        <mxCell id="MmgOfs4JkYU5Ez-4q49p-39" value="total reads &amp;lt; number of books * 2" style="rhombus;whiteSpace=wrap;html=1;rounded=0;" vertex="1" parent="WIyWlLk6GJQsqaUBKTNV-1">
          <mxGeometry x="370" y="450" width="150" height="130" as="geometry" />
        </mxCell>
        <mxCell id="MmgOfs4JkYU5Ez-4q49p-40" value="count total reads = 0" style="whiteSpace=wrap;html=1;rounded=0;" vertex="1" parent="WIyWlLk6GJQsqaUBKTNV-1">
          <mxGeometry x="80" y="320" width="120" height="60" as="geometry" />
        </mxCell>
      </root>
    </mxGraphModel>
  </diagram>
</mxfile>
